<?xml version="1.0" encoding="utf-8"?>
<svg xmlns="http://www.w3.org/2000/svg"
	xmlns:xlink="http://www.w3.org/1999/xlink"
	width="253px" height="59px" viewBox="0 0 253 59">
<path fillRule="evenodd" d="M 252.07 30.89C 251.46 32.61 250.53 34.13 249.3 35.45 248.07 36.76 246.53 37.81 244.7 38.58 242.86 39.35 240.71 39.73 238.24 39.73 235.78 39.73 233.63 39.35 231.79 38.58 229.95 37.81 228.42 36.76 227.19 35.45 225.95 34.13 225.03 32.61 224.41 30.89 223.8 29.17 223.49 27.36 223.49 25.46 223.49 23.55 223.8 21.74 224.41 20.02 225.03 18.3 225.95 16.78 227.19 15.46 228.42 14.15 229.95 13.11 231.79 12.34 233.63 11.57 235.78 11.18 238.24 11.18 240.71 11.18 242.86 11.57 244.7 12.34 246.53 13.11 248.07 14.15 249.3 15.46 250.53 16.78 251.46 18.3 252.07 20.02 252.69 21.74 253 23.55 253 25.46 253 27.36 252.69 29.17 252.07 30.89ZM 245.05 22.43C 244.74 21.5 244.28 20.69 243.67 20 243.07 19.31 242.31 18.78 241.39 18.4 240.47 18.02 239.43 17.83 238.24 17.83 237.06 17.83 236.01 18.02 235.1 18.4 234.18 18.78 233.42 19.31 232.81 20 232.21 20.69 231.75 21.5 231.44 22.43 231.12 23.35 230.96 24.36 230.96 25.46 230.96 26.55 231.12 27.56 231.44 28.49 231.75 29.41 232.21 30.22 232.81 30.91 233.42 31.6 234.18 32.14 235.1 32.51 236.01 32.89 237.06 33.08 238.24 33.08 239.43 33.08 240.47 32.89 241.39 32.51 242.31 32.14 243.07 31.6 243.67 30.91 244.28 30.22 244.74 29.41 245.05 28.49 245.37 27.56 245.52 26.55 245.52 25.46 245.52 24.36 245.37 23.35 245.05 22.43ZM 219.98 52.56C 219.72 52.77 219.44 52.93 219.11 53.04 218.77 53.15 218.43 53.2 218.06 53.2 217.7 53.2 217.35 53.15 217.02 53.04 216.68 52.93 216.4 52.77 216.14 52.56 215.89 52.34 215.7 52.07 215.54 51.75 215.39 51.44 215.32 51.06 215.32 50.63 215.32 50.19 215.39 49.82 215.54 49.5 215.7 49.19 215.89 48.91 216.14 48.7 216.4 48.49 216.68 48.33 217.02 48.22 217.35 48.11 217.7 48.06 218.06 48.06 218.43 48.06 218.77 48.11 219.11 48.22 219.44 48.33 219.73 48.49 219.98 48.7 220.23 48.91 220.42 49.19 220.58 49.5 220.73 49.82 220.8 50.19 220.8 50.63 220.8 51.06 220.73 51.44 220.58 51.75 220.42 52.07 220.23 52.34 219.98 52.56ZM 218.97 50.24C 218.94 50.1 218.88 49.99 218.81 49.89 218.73 49.8 218.63 49.72 218.51 49.66 218.39 49.6 218.23 49.57 218.06 49.57 217.89 49.57 217.74 49.6 217.61 49.66 217.48 49.72 217.38 49.8 217.31 49.89 217.24 49.99 217.18 50.1 217.15 50.24 217.12 50.37 217.1 50.5 217.1 50.63 217.1 50.76 217.12 50.89 217.15 51.02 217.18 51.15 217.24 51.26 217.31 51.36 217.38 51.46 217.48 51.54 217.61 51.6 217.74 51.66 217.89 51.69 218.06 51.69 218.23 51.69 218.39 51.66 218.51 51.6 218.63 51.54 218.73 51.46 218.81 51.36 218.88 51.26 218.94 51.15 218.97 51.02 219 50.89 219.02 50.76 219.02 50.63 219.02 50.5 219 50.37 218.97 50.24ZM 204.53 11.77C 204.53 11.77 211.8 11.77 211.8 11.77 211.8 11.77 211.8 39.14 211.8 39.14 211.8 39.14 204.53 39.14 204.53 39.14 204.53 39.14 204.53 11.77 204.53 11.77ZM 199.44 52.56C 199.19 52.77 198.9 52.93 198.57 53.04 198.23 53.15 197.89 53.2 197.52 53.2 197.16 53.2 196.81 53.15 196.48 53.04 196.14 52.93 195.86 52.77 195.6 52.56 195.35 52.34 195.16 52.07 195.01 51.75 195.01 51.75 195 51.75 195 51.75 194.85 51.44 194.78 51.06 194.78 50.63 194.78 50.19 194.85 49.82 195 49.5 195.16 49.19 195.35 48.91 195.6 48.7 195.86 48.49 196.14 48.33 196.48 48.22 196.81 48.11 197.16 48.06 197.52 48.06 197.89 48.06 198.23 48.11 198.57 48.22 198.9 48.33 199.19 48.49 199.44 48.7 199.69 48.91 199.89 49.19 200.04 49.5 200.19 49.82 200.26 50.19 200.26 50.63 200.26 51.06 200.19 51.44 200.04 51.75 199.89 52.07 199.69 52.34 199.44 52.56ZM 198.44 50.24C 198.4 50.1 198.34 49.99 198.27 49.89 198.19 49.8 198.09 49.72 197.97 49.66 197.85 49.6 197.69 49.57 197.52 49.57 197.35 49.57 197.2 49.6 197.07 49.66 196.94 49.72 196.84 49.8 196.77 49.89 196.7 49.99 196.64 50.1 196.61 50.24 196.58 50.37 196.56 50.5 196.56 50.63 196.56 50.76 196.58 50.89 196.61 51.02 196.64 51.15 196.7 51.26 196.77 51.36 196.84 51.46 196.94 51.54 197.07 51.6 197.2 51.66 197.35 51.69 197.52 51.69 197.69 51.69 197.85 51.66 197.97 51.6 198.09 51.54 198.19 51.46 198.27 51.36 198.34 51.26 198.4 51.15 198.44 51.02 198.47 50.89 198.49 50.76 198.49 50.63 198.49 50.5 198.47 50.37 198.44 50.24ZM 185.68 39.14C 185.68 39.14 179.11 30.23 179.11 30.23 179.11 30.23 175.96 30.23 175.96 30.23 175.96 30.23 175.96 39.14 175.96 39.14 175.96 39.14 168.68 39.14 168.68 39.14 168.68 39.14 168.68 11.77 168.68 11.77 168.68 11.77 180.29 11.77 180.29 11.77 181.68 11.77 183.05 11.91 184.4 12.2 185.75 12.49 186.96 12.98 188.02 13.69 189.08 14.39 189.94 15.33 190.6 16.52 191.25 17.71 191.58 19.2 191.58 21 191.58 22.15 191.45 23.16 191.19 24.03 190.92 24.9 190.56 25.67 190.09 26.34 189.61 27 189.05 27.57 188.41 28.04 187.77 28.51 187.07 28.9 186.31 29.21 186.31 29.21 193.9 39.14 193.9 39.14 193.9 39.14 185.68 39.14 185.68 39.14ZM 183.14 18.81C 182.5 18.29 181.65 18.03 180.6 18.03 180.6 18.03 175.96 18.03 175.96 18.03 175.96 18.03 175.96 24.36 175.96 24.36 175.96 24.36 180.6 24.36 180.6 24.36 181.65 24.36 182.5 24.1 183.14 23.58 183.78 23.06 184.1 22.26 184.1 21.19 184.1 20.12 183.78 19.33 183.14 18.81ZM 170.26 48.33C 170.61 48.52 170.87 48.75 171.07 49.05 171.26 49.34 171.37 49.67 171.41 50.03 171.45 50.41 171.43 50.77 171.34 51.14 171.34 51.14 168.15 51.14 168.15 51.14 168.2 51.27 168.28 51.39 168.38 51.49 168.48 51.58 168.6 51.66 168.74 51.72 168.87 51.78 169.03 51.82 169.2 51.85 169.36 51.88 169.53 51.89 169.71 51.89 169.98 51.89 170.23 51.87 170.47 51.83 170.69 51.79 170.9 51.73 171.11 51.66 171.11 51.66 171.11 52.93 171.11 52.93 170.87 53.01 170.62 53.07 170.33 53.12 170.03 53.17 169.69 53.2 169.3 53.2 168.9 53.2 168.53 53.14 168.17 53.03 167.82 52.92 167.51 52.76 167.26 52.54 167 52.32 166.79 52.05 166.64 51.73 166.49 51.42 166.41 51.04 166.41 50.63 166.41 50.16 166.49 49.76 166.66 49.43 166.82 49.1 167.04 48.83 167.29 48.63 167.54 48.43 167.82 48.28 168.12 48.19 168.42 48.1 168.7 48.06 168.96 48.06 169.48 48.06 169.92 48.15 170.26 48.33ZM 168.4 49.51C 168.22 49.66 168.13 49.86 168.13 50.11 168.13 50.11 169.77 50.11 169.77 50.11 169.78 50.05 169.78 49.97 169.77 49.88 169.76 49.79 169.72 49.71 169.67 49.62 169.61 49.53 169.53 49.46 169.42 49.39 169.31 49.33 169.18 49.3 169.01 49.3 168.77 49.3 168.57 49.37 168.4 49.51ZM 158.99 48.21C 158.99 48.21 160.72 48.21 160.72 48.21 160.72 48.21 160.72 53.05 160.72 53.05 160.72 53.05 158.99 53.05 158.99 53.05 158.99 53.05 158.99 48.21 158.99 48.21ZM 157.77 52.55C 157.6 52.7 157.4 52.82 157.14 52.91 156.89 53 156.61 53.05 156.27 53.05 156.27 53.05 153.61 53.05 153.61 53.05 153.61 53.05 153.61 48.21 153.61 48.21 153.61 48.21 155.34 48.21 155.34 48.21 155.34 48.21 155.34 49.62 155.34 49.62 155.34 49.62 156.27 49.62 156.27 49.62 156.61 49.62 156.89 49.66 157.14 49.75 157.4 49.84 157.6 49.97 157.77 50.12 157.94 50.28 158.07 50.46 158.16 50.67 158.24 50.88 158.28 51.1 158.28 51.33 158.28 51.57 158.24 51.79 158.16 52 158.07 52.21 157.94 52.39 157.77 52.55ZM 156.33 50.93C 156.22 50.83 156.04 50.78 155.8 50.78 155.8 50.78 155.34 50.78 155.34 50.78 155.34 50.78 155.34 51.89 155.34 51.89 155.34 51.89 155.8 51.89 155.8 51.89 156.04 51.89 156.22 51.84 156.33 51.73 156.44 51.63 156.5 51.5 156.5 51.33 156.5 51.17 156.44 51.04 156.33 50.93ZM 149.13 34.84C 149.13 34.84 137.71 34.84 137.71 34.84 137.71 34.84 136.14 39.14 136.14 39.14 136.14 39.14 128.66 39.14 128.66 39.14 128.66 39.14 139.49 11.77 139.49 11.77 139.49 11.77 147.36 11.77 147.36 11.77 147.36 11.77 158.17 39.14 158.17 39.14 158.17 39.14 150.7 39.14 150.7 39.14 150.7 39.14 149.13 34.84 149.13 34.84ZM 144.13 21.08C 144 20.74 143.88 20.37 143.77 19.98 143.67 19.59 143.55 19.03 143.42 18.3 143.29 19.03 143.17 19.59 143.07 19.98 142.96 20.37 142.84 20.74 142.71 21.08 142.71 21.08 139.88 28.98 139.88 28.98 139.88 28.98 146.96 28.98 146.96 28.98 146.96 28.98 144.13 21.08 144.13 21.08ZM 121.96 51.74C 121.96 51.74 121.48 51.74 121.48 51.74 121.48 51.74 120.53 53.05 120.53 53.05 120.53 53.05 118.61 53.05 118.61 53.05 118.61 53.05 119.82 51.5 119.82 51.5 119.51 51.34 119.29 51.13 119.14 50.86 118.99 50.59 118.91 50.3 118.91 49.97 118.91 49.74 118.95 49.51 119.04 49.3 119.12 49.09 119.24 48.89 119.41 48.73 119.59 48.57 119.79 48.44 120.04 48.35 120.3 48.26 120.58 48.21 120.92 48.21 120.92 48.21 123.69 48.21 123.69 48.21 123.69 48.21 123.69 53.05 123.69 53.05 123.69 53.05 121.96 53.05 121.96 53.05 121.96 53.05 121.96 51.74 121.96 51.74ZM 121.96 49.52C 121.96 49.52 121.33 49.52 121.33 49.52 120.89 49.52 120.68 49.69 120.68 50.02 120.68 50.36 120.89 50.53 121.33 50.53 121.33 50.53 121.96 50.53 121.96 50.53 121.96 50.53 121.96 49.52 121.96 49.52ZM 110.88 24.6C 110.88 24.6 104.98 33.59 104.98 33.59 104.98 33.59 100.81 33.59 100.81 33.59 100.81 33.59 94.91 24.56 94.91 24.56 94.91 24.56 94.91 39.14 94.91 39.14 94.91 39.14 87.63 39.14 87.63 39.14 87.63 39.14 87.63 11.77 87.63 11.77 87.63 11.77 94.51 11.77 94.51 11.77 94.51 11.77 102.89 24.6 102.89 24.6 102.89 24.6 111.27 11.77 111.27 11.77 111.27 11.77 118.16 11.77 118.16 11.77 118.16 11.77 118.16 39.14 118.16 39.14 118.16 39.14 110.88 39.14 110.88 39.14 110.88 39.14 110.88 24.6 110.88 24.6ZM 0-0.01C 0-0.01 58.96-0.01 58.96-0.01 58.96-0.01 58.96 59 58.96 59 58.96 59 0 59 0 59 0 59 0-0.01 0-0.01ZM 2.91 56.11C 2.91 56.11 56.05 56.11 56.05 56.11 56.05 56.11 56.05 2.89 56.05 2.89 56.05 2.89 2.91 2.89 2.91 2.89 2.91 2.89 2.91 56.11 2.91 56.11ZM 32.41 34.83C 32.41 34.83 53.21 14.15 53.21 14.15 53.21 14.15 53.21 53.08 53.21 53.08 53.21 53.08 32.41 53.08 32.41 53.08 32.41 53.08 32.41 34.83 32.41 34.83ZM 29.48 29.5C 29.48 29.5 27.19 27.22 27.19 27.22 27.19 27.22 27.19 27.22 27.19 27.22 27.19 27.22 5.75 5.91 5.75 5.91 5.75 5.91 23.55 5.91 23.55 5.91 23.55 5.91 29.48 11.81 29.48 11.81 29.48 11.81 35.41 5.91 35.41 5.91 35.41 5.91 53.21 5.91 53.21 5.91 53.21 5.91 29.48 29.5 29.48 29.5 29.48 29.5 29.48 29.5 29.48 29.5ZM 26.55 53.08C 26.55 53.08 5.75 53.08 5.75 53.08 5.75 53.08 5.75 14.15 5.75 14.15 5.75 14.15 26.55 34.82 26.55 34.82 26.55 34.82 26.55 53.08 26.55 53.08ZM 89.54 49.92C 89.54 49.92 91.06 49.92 91.06 49.92 91.06 49.92 91.06 48.21 91.06 48.21 91.06 48.21 92.79 48.21 92.79 48.21 92.79 48.21 92.79 53.05 92.79 53.05 92.79 53.05 91.06 53.05 91.06 53.05 91.06 53.05 91.06 51.33 91.06 51.33 91.06 51.33 89.54 51.33 89.54 51.33 89.54 51.33 89.54 53.05 89.54 53.05 89.54 53.05 87.81 53.05 87.81 53.05 87.81 53.05 87.81 48.21 87.81 48.21 87.81 48.21 89.54 48.21 89.54 48.21 89.54 48.21 89.54 49.92 89.54 49.92ZM 99.14 50.45C 99.34 50.33 99.56 50.24 99.82 50.19 100.07 50.13 100.32 50.11 100.55 50.11 100.91 50.11 101.27 50.16 101.6 50.23 101.6 50.23 101.6 50.05 101.6 50.05 101.6 49.88 101.52 49.73 101.36 49.62 101.19 49.51 100.93 49.45 100.59 49.45 100.26 49.45 99.96 49.49 99.68 49.56 99.38 49.64 99.12 49.73 98.88 49.82 98.88 49.82 98.88 48.38 98.88 48.38 98.99 48.35 99.11 48.31 99.25 48.27 99.39 48.24 99.54 48.2 99.72 48.17 99.89 48.14 100.06 48.11 100.24 48.09 100.42 48.07 100.6 48.06 100.78 48.06 101.17 48.06 101.52 48.1 101.84 48.17 102.15 48.24 102.42 48.37 102.64 48.54 102.86 48.71 103.03 48.94 103.16 49.24 103.27 49.53 103.33 49.88 103.33 50.32 103.33 50.32 103.33 51.67 103.33 51.67 103.33 51.78 103.36 51.86 103.43 51.9 103.5 51.95 103.57 51.97 103.66 51.97 103.73 51.97 103.8 51.96 103.86 51.94 103.86 51.94 103.86 53 103.86 53 103.75 53.05 103.61 53.08 103.46 53.11 103.31 53.14 103.15 53.15 102.98 53.15 102.45 53.15 102.06 52.97 101.83 52.62 101.59 52.8 101.34 52.94 101.07 53.04 100.79 53.15 100.48 53.2 100.13 53.2 99.9 53.2 99.68 53.17 99.47 53.1 99.27 53.03 99.09 52.94 98.94 52.81 98.78 52.68 98.66 52.52 98.57 52.33 98.48 52.15 98.44 51.94 98.44 51.71 98.44 51.41 98.51 51.15 98.64 50.94 98.77 50.74 98.94 50.58 99.14 50.45ZM 100.38 51.9C 100.48 51.99 100.62 52.04 100.8 52.04 100.94 52.04 101.08 52.02 101.21 51.98 101.34 51.95 101.47 51.88 101.6 51.79 101.6 51.79 101.6 51.13 101.6 51.13 101.53 51.1 101.44 51.08 101.33 51.06 101.22 51.05 101.1 51.04 100.98 51.04 100.78 51.04 100.6 51.08 100.45 51.15 100.29 51.23 100.21 51.38 100.21 51.57 100.21 51.7 100.26 51.81 100.38 51.9ZM 113.52 49.62C 113.52 49.62 112.1 49.62 112.1 49.62 112.1 49.62 112.1 53.05 112.1 53.05 112.1 53.05 110.37 53.05 110.37 53.05 110.37 53.05 110.37 49.62 110.37 49.62 110.37 49.62 108.95 49.62 108.95 49.62 108.95 49.62 108.95 48.21 108.95 48.21 108.95 48.21 113.52 48.21 113.52 48.21 113.52 48.21 113.52 49.62 113.52 49.62ZM 129.21 48.21C 129.21 48.21 131.03 48.21 131.03 48.21 131.03 48.21 132.02 50.05 132.02 50.05 132.02 50.05 132.33 50.05 132.33 50.05 132.33 50.05 132.33 48.21 132.33 48.21 132.33 48.21 134.06 48.21 134.06 48.21 134.06 48.21 134.06 50.05 134.06 50.05 134.06 50.05 134.37 50.05 134.37 50.05 134.37 50.05 135.36 48.21 135.36 48.21 135.36 48.21 137.18 48.21 137.18 48.21 137.18 48.21 135.74 50.62 135.74 50.62 135.74 50.62 137.28 53.05 137.28 53.05 137.28 53.05 135.46 53.05 135.46 53.05 135.46 53.05 134.48 51.37 134.48 51.37 134.48 51.37 134.06 51.37 134.06 51.37 134.06 51.37 134.06 53.05 134.06 53.05 134.06 53.05 132.33 53.05 132.33 53.05 132.33 53.05 132.33 51.37 132.33 51.37 132.33 51.37 131.91 51.37 131.91 51.37 131.91 51.37 130.93 53.05 130.93 53.05 130.93 53.05 129.1 53.05 129.1 53.05 129.1 53.05 130.65 50.62 130.65 50.62 130.65 50.62 129.21 48.21 129.21 48.21ZM 144.43 49.92C 144.43 49.92 145.95 49.92 145.95 49.92 145.95 49.92 145.95 48.21 145.95 48.21 145.95 48.21 147.67 48.21 147.67 48.21 147.67 48.21 147.67 53.05 147.67 53.05 147.67 53.05 145.95 53.05 145.95 53.05 145.95 53.05 145.95 51.33 145.95 51.33 145.95 51.33 144.43 51.33 144.43 51.33 144.43 51.33 144.43 53.05 144.43 53.05 144.43 53.05 142.7 53.05 142.7 53.05 142.7 53.05 142.7 48.21 142.7 48.21 142.7 48.21 144.43 48.21 144.43 48.21 144.43 48.21 144.43 49.92 144.43 49.92ZM 189.09 53.05C 189.09 53.05 187.36 53.05 187.36 53.05 187.36 53.05 187.36 49.62 187.36 49.62 187.36 49.62 185.84 49.62 185.84 49.62 185.84 49.62 185.84 53.05 185.84 53.05 185.84 53.05 184.12 53.05 184.12 53.05 184.12 53.05 184.12 48.21 184.12 48.21 184.12 48.21 189.09 48.21 189.09 48.21 189.09 48.21 189.09 53.05 189.09 53.05ZM 210.07 49.62C 210.07 49.62 208.65 49.62 208.65 49.62 208.65 49.62 208.65 53.05 208.65 53.05 208.65 53.05 206.93 53.05 206.93 53.05 206.93 53.05 206.93 49.62 206.93 49.62 206.93 49.62 205.51 49.62 205.51 49.62 205.51 49.62 205.51 48.21 205.51 48.21 205.51 48.21 210.07 48.21 210.07 48.21 210.07 48.21 210.07 49.62 210.07 49.62ZM 226.28 51.7C 226.46 51.7 226.62 51.61 226.73 51.43 226.84 51.24 226.92 50.99 226.99 50.68 227.05 50.37 227.1 49.99 227.13 49.57 227.16 49.15 227.18 48.69 227.2 48.21 227.2 48.21 231.36 48.21 231.36 48.21 231.36 48.21 231.36 53.05 231.36 53.05 231.36 53.05 229.64 53.05 229.64 53.05 229.64 53.05 229.64 49.52 229.64 49.52 229.64 49.52 228.78 49.52 228.78 49.52 228.75 50.02 228.7 50.5 228.63 50.94 228.55 51.39 228.44 51.77 228.3 52.09 228.16 52.42 227.98 52.68 227.74 52.87 227.51 53.06 227.23 53.16 226.88 53.16 226.62 53.16 226.32 53.11 226.01 53 226.01 53 226.01 51.64 226.01 51.64 226.11 51.68 226.2 51.7 226.28 51.7ZM 239.03 49.9C 239.03 49.9 239.41 49.9 239.41 49.9 239.41 49.9 240.48 48.21 240.48 48.21 240.48 48.21 242.41 48.21 242.41 48.21 242.41 48.21 240.82 50.59 240.82 50.59 240.82 50.59 242.51 53.05 242.51 53.05 242.51 53.05 240.59 53.05 240.59 53.05 240.59 53.05 239.39 51.21 239.39 51.21 239.39 51.21 239.03 51.21 239.03 51.21 239.03 51.21 239.03 53.05 239.03 53.05 239.03 53.05 237.3 53.05 237.3 53.05 237.3 53.05 237.3 48.21 237.3 48.21 237.3 48.21 239.03 48.21 239.03 48.21 239.03 48.21 239.03 49.9 239.03 49.9ZM 249.63 50.5C 249.63 50.5 251.37 48.21 251.37 48.21 251.37 48.21 252.88 48.21 252.88 48.21 252.88 48.21 252.88 53.05 252.88 53.05 252.88 53.05 251.15 53.05 251.15 53.05 251.15 53.05 251.15 50.76 251.15 50.76 251.15 50.76 249.42 53.05 249.42 53.05 249.42 53.05 247.91 53.05 247.91 53.05 247.91 53.05 247.91 48.21 247.91 48.21 247.91 48.21 249.63 48.21 249.63 48.21 249.63 48.21 249.63 50.5 249.63 50.5Z" fill="rgb(0,81,75)"/></svg>